<?xml version="1.0" encoding="UTF-8"?>
<svg id="Laag_2" data-name="Laag 2" xmlns="http://www.w3.org/2000/svg" viewBox="0 0 209.87 47.48">
  <defs>
    <style>
      .cls-1 {
        fill: #334999;
      }
    </style>
  </defs>
  <g id="Laag_1-2" data-name="Laag 1">
    <g>
      <g>
        <path class="cls-1" d="m102.4.76c-.86-.13-1.71-.2-2.55-.2-2.43,0-4.27.54-5.61.94-.32.1-.64.19-.89.25-.25-.06-.56-.15-.89-.25-1.34-.4-3.18-.94-5.61-.94-.83,0-1.69.07-2.55.2-6.96,1.05-10.9,7.61-10.06,16.72.43,4.59,2,8.38,3.38,11.72,1.28,3.08,2.49,5.99,2.73,9.25.58,7.64,4.41,8.47,6.02,8.47,2.24,0,4.33-1.59,5.2-3.97.4-1.09.52-2.35.65-3.7.1-1.06.34-3.54.86-3.98h0s.1-.02.24-.02c.16,0,.25.02.27.03.49.42.73,2.9.84,3.96.13,1.34.25,2.61.65,3.7.87,2.37,2.97,3.96,5.21,3.96,1.62,0,5.45-.83,6.02-8.47.25-3.25,1.45-6.17,2.73-9.25,1.39-3.34,2.96-7.13,3.38-11.72.85-9.11-3.1-15.67-10.06-16.72Zm6.98,16.43c-.76,8.2-5.55,13.47-6.12,21.02-.32,4.16-1.67,5.62-2.95,5.62-.97,0-1.9-.83-2.31-1.95-.95-2.59.2-9.71-4.65-9.71s-3.7,7.12-4.65,9.71c-.41,1.12-1.34,1.95-2.31,1.95-1.28,0-2.63-1.45-2.95-5.62-.57-7.55-5.36-12.82-6.12-21.02-.74-7.92,2.51-12.64,7.44-13.38.75-.11,1.44-.16,2.09-.16,3.06,0,5.01,1.06,6.5,1.24,1.49-.18,3.44-1.24,6.5-1.24.64,0,1.34.05,2.09.16,4.93.74,8.18,5.46,7.44,13.38Z"/>
        <path class="cls-1" d="m100.31,47.48c-2.48,0-4.78-1.74-5.74-4.33-.42-1.15-.55-2.44-.68-3.81-.2-2.14-.41-3.03-.54-3.4-.14.38-.34,1.28-.54,3.37-.14,1.39-.26,2.69-.69,3.84-.95,2.59-3.26,4.34-5.73,4.34-1.78,0-5.97-.88-6.59-8.99-.24-3.16-1.43-6.03-2.69-9.06-1.41-3.39-2.99-7.22-3.43-11.9-.88-9.43,3.26-16.24,10.54-17.33.88-.13,1.77-.2,2.63-.2,2.52,0,4.4.55,5.77.96.26.08.51.15.73.21.22-.06.47-.13.73-.21,1.37-.41,3.25-.96,5.77-.96.87,0,1.75.07,2.63.2,7.28,1.09,11.42,7.89,10.53,17.33-.44,4.68-2.02,8.51-3.43,11.89-1.26,3.04-2.45,5.91-2.69,9.07-.62,8.12-4.81,8.99-6.59,8.99Zm-6.96-12.79c.15,0,.35.01.5.08l.14.09c.49.42.77,1.6,1.03,4.34.13,1.32.25,2.55.62,3.56.79,2.15,2.67,3.59,4.67,3.59,1.46,0,4.92-.77,5.46-7.94.25-3.35,1.48-6.3,2.77-9.42,1.37-3.3,2.92-7.05,3.34-11.56.82-8.79-2.94-15.11-9.57-16.1h0c-.82-.13-1.65-.19-2.46-.19-2.36,0-4.14.53-5.45.91-.33.1-.65.19-.91.26l-.14.03-.14-.03c-.26-.06-.58-.16-.91-.26-1.3-.39-3.09-.91-5.45-.91-.81,0-1.64.06-2.46.19-6.63,1-10.39,7.32-9.58,16.1.42,4.51,1.97,8.25,3.34,11.56,1.3,3.13,2.52,6.08,2.77,9.42.54,7.17,4,7.94,5.46,7.94,2,0,3.88-1.45,4.67-3.6.38-1.02.5-2.25.62-3.55.26-2.75.55-3.93,1.05-4.36l.4-.34.19.19h.03Zm6.96,9.71c-1.19,0-2.33-.93-2.84-2.32-.29-.78-.4-1.89-.51-3.07-.34-3.55-.83-6.27-3.61-6.27s-3.27,2.72-3.61,6.27c-.11,1.18-.22,2.29-.51,3.07-.51,1.39-1.65,2.32-2.84,2.32-.92,0-3.09-.6-3.51-6.14-.28-3.66-1.56-6.75-2.92-10.02-1.38-3.33-2.81-6.78-3.2-10.99-.72-7.79,2.31-13.15,7.92-13.99.73-.11,1.47-.17,2.17-.17,2.07,0,3.64.46,4.9.83.64.19,1.19.35,1.66.41.34-.06.89-.22,1.53-.41,1.26-.37,2.83-.83,4.9-.83.71,0,1.44.06,2.17.17,5.61.84,8.65,6.2,7.92,13.99-.39,4.22-1.82,7.66-3.2,10.99-1.36,3.27-2.64,6.36-2.92,10.02-.42,5.54-2.6,6.14-3.51,6.14Zm-6.96-12.79c4.03,0,4.44,4.21,4.74,7.29.11,1.1.21,2.14.45,2.79.81,2.18,3.67,2.93,4.16-3.52.29-3.84,1.67-7.16,3-10.37,1.35-3.25,2.75-6.62,3.12-10.66h0c.67-7.13-2-12.02-6.96-12.77-.68-.1-1.35-.15-2-.15-1.91,0-3.39.44-4.58.79-.69.2-1.28.38-1.85.45-.7-.07-1.3-.24-1.99-.45-1.19-.35-2.67-.79-4.58-.79-.65,0-1.32.05-2,.15-4.96.75-7.63,5.64-6.96,12.77.38,4.04,1.77,7.41,3.12,10.66,1.33,3.21,2.71,6.53,3,10.37.49,6.45,3.35,5.7,4.16,3.52.24-.65.34-1.69.45-2.79.3-3.08.71-7.29,4.74-7.29Z"/>
      </g>
      <path class="cls-1" d="m33.08,2.75l-6.25,41.98h-5.66l-4.6-27.24h-.12l-4.54,27.24h-5.66L0,2.75h6.37l3.01,26.65h.12L14.21,2.75h4.6l4.89,27.3h.12l2.89-27.3h6.37Z"/>
      <path class="cls-1" d="m37.03,44.73V2.75h6.01v41.98h-6.01Z"/>
      <path class="cls-1" d="m52.83,44.73V8.41h-6.96V2.75h19.93v5.66h-6.96v36.32h-6.01Z"/>
      <path class="cls-1" d="m127.86,44.73V8.41h-6.96V2.75h19.93v5.66h-6.96v36.32h-6.01Z"/>
      <path class="cls-1" d="m137.53,44.73l9.38-41.98h5.01l9.37,41.98h-6.01l-1.77-9.02h-8.2l-1.77,9.02h-6.01Zm14.86-14.68l-2.95-15.21h-.12l-2.95,15.21h6.01Z"/>
      <path class="cls-1" d="m164,44.73V2.75h5.78l9.08,25.3h.12V2.75h6.01v41.98h-5.66l-9.2-25.24h-.12v25.24h-6.01Z"/>
      <path class="cls-1" d="m190.41,44.73V2.75h8.9c3.46,0,6.08.94,7.87,2.83s2.68,4.56,2.68,8.02v19.63c0,3.93-.95,6.83-2.86,8.7s-4.65,2.8-8.23,2.8h-8.37Zm6.01-36.32v30.66h2.77c1.69,0,2.89-.42,3.6-1.27.71-.84,1.06-2.17,1.06-3.98V13.6c0-1.65-.33-2.93-1-3.83-.67-.9-1.89-1.36-3.65-1.36h-2.77Z"/>
    </g>
    <polygon class="cls-1" points="86.03 5.94 87.75 10.24 92.04 11.96 87.75 13.68 86.03 17.97 84.3 13.68 80.01 11.96 84.3 10.24 86.03 5.94"/>
  </g>
</svg>